<svg width="36" height="40" viewBox="0 0 36 40" fill="none" xmlns="http://www.w3.org/2000/svg">
<path d="M33.625 10.2344H26.9844V9.45312C26.9844 4.49219 22.9609 0.46875 18 0.46875C13.0391 0.46875 9.01562 4.49219 9.01562 9.45312V10.2344H2.375C1.51074 10.2344 0.8125 10.9326 0.8125 11.7969V37.9688C0.8125 38.833 1.51074 39.5312 2.375 39.5312H33.625C34.4893 39.5312 35.1875 38.833 35.1875 37.9688V11.7969C35.1875 10.9326 34.4893 10.2344 33.625 10.2344ZM12.5312 9.45312C12.5312 6.43066 14.9775 3.98438 18 3.98438C21.0225 3.98438 23.4688 6.43066 23.4688 9.45312V10.2344H12.5312V9.45312ZM31.6719 36.0156H4.32812V13.75H9.01562V18.0469C9.01562 18.2617 9.19141 18.4375 9.40625 18.4375H12.1406C12.3555 18.4375 12.5312 18.2617 12.5312 18.0469V13.75H23.4688V18.0469C23.4688 18.2617 23.6445 18.4375 23.8594 18.4375H26.5938C26.8086 18.4375 26.9844 18.2617 26.9844 18.0469V13.75H31.6719V36.0156Z" fill="black"/>
</svg>
