<svg width="102" height="38" viewBox="0 0 102 38" fill="none" xmlns="http://www.w3.org/2000/svg">
<path d="M4.35 37.35C3.35 37.35 2.58333 37.05 2.05 36.45C1.51667 35.85 1.25 35.0167 1.25 33.95V15.6C1.25 14.5 1.51667 13.6667 2.05 13.1C2.58333 12.5 3.35 12.2 4.35 12.2C5.35 12.2 6.11667 12.5 6.65 13.1C7.21667 13.6667 7.5 14.5 7.5 15.6V33.95C7.5 35.0167 7.23333 35.85 6.7 36.45C6.16667 37.05 5.38333 37.35 4.35 37.35ZM4.35 7.55C3.18333 7.55 2.26667 7.26667 1.6 6.7C0.966667 6.1 0.65 5.28333 0.65 4.25C0.65 3.18333 0.966667 2.36666 1.6 1.8C2.26667 1.23333 3.18333 0.949999 4.35 0.949999C5.55 0.949999 6.46667 1.23333 7.1 1.8C7.73333 2.36666 8.05 3.18333 8.05 4.25C8.05 5.28333 7.73333 6.1 7.1 6.7C6.46667 7.26667 5.55 7.55 4.35 7.55ZM22.9441 37.5C21.5108 37.5 19.9941 37.35 18.3941 37.05C16.7941 36.75 15.3608 36.2333 14.0941 35.5C13.5608 35.1667 13.1775 34.7833 12.9441 34.35C12.7441 33.8833 12.6608 33.4333 12.6941 33C12.7608 32.5333 12.9275 32.1333 13.1941 31.8C13.4941 31.4667 13.8608 31.25 14.2941 31.15C14.7608 31.05 15.2608 31.1333 15.7941 31.4C17.1275 32.0333 18.3775 32.4833 19.5441 32.75C20.7108 32.9833 21.8608 33.1 22.9941 33.1C24.5941 33.1 25.7775 32.8333 26.5441 32.3C27.3441 31.7333 27.7441 31 27.7441 30.1C27.7441 29.3333 27.4775 28.75 26.9441 28.35C26.4441 27.9167 25.6775 27.6 24.6441 27.4L19.6441 26.45C17.5775 26.05 15.9941 25.3 14.8941 24.2C13.8275 23.0667 13.2941 21.6167 13.2941 19.85C13.2941 18.25 13.7275 16.8667 14.5941 15.7C15.4941 14.5333 16.7275 13.6333 18.2941 13C19.8608 12.3667 21.6608 12.05 23.6941 12.05C25.1608 12.05 26.5275 12.2167 27.7941 12.55C29.0941 12.85 30.3441 13.3333 31.5441 14C32.0441 14.2667 32.3775 14.6167 32.5441 15.05C32.7441 15.4833 32.7941 15.9333 32.6941 16.4C32.5941 16.8333 32.3941 17.2333 32.0941 17.6C31.7941 17.9333 31.4108 18.15 30.9441 18.25C30.5108 18.3167 30.0108 18.2167 29.4441 17.95C28.4108 17.4167 27.4108 17.0333 26.4441 16.8C25.5108 16.5667 24.6108 16.45 23.7441 16.45C22.1108 16.45 20.8941 16.7333 20.0941 17.3C19.3275 17.8667 18.9441 18.6167 18.9441 19.55C18.9441 20.25 19.1775 20.8333 19.6441 21.3C20.1108 21.7667 20.8275 22.0833 21.7941 22.25L26.7941 23.2C28.9608 23.6 30.5941 24.3333 31.6941 25.4C32.8275 26.4667 33.3941 27.9 33.3941 29.7C33.3941 32.1333 32.4441 34.05 30.5441 35.45C28.6441 36.8167 26.1108 37.5 22.9441 37.5ZM41.5082 37.4C40.5082 37.4 39.7415 37.1333 39.2082 36.6C38.6749 36.0333 38.4082 35.2333 38.4082 34.2V4.5C38.4082 3.46666 38.6749 2.68333 39.2082 2.15C39.7415 1.61666 40.5082 1.35 41.5082 1.35C42.5082 1.35 43.2749 1.61666 43.8082 2.15C44.3749 2.68333 44.6582 3.46666 44.6582 4.5V17.45H43.9582C44.6915 15.6833 45.8249 14.35 47.3582 13.45C48.9249 12.5167 50.6915 12.05 52.6582 12.05C54.6249 12.05 56.2415 12.4167 57.5082 13.15C58.7749 13.8833 59.7249 15 60.3582 16.5C60.9915 17.9667 61.3082 19.8333 61.3082 22.1V34.2C61.3082 35.2333 61.0415 36.0333 60.5082 36.6C59.9749 37.1333 59.2082 37.4 58.2082 37.4C57.2082 37.4 56.4249 37.1333 55.8582 36.6C55.3249 36.0333 55.0582 35.2333 55.0582 34.2V22.4C55.0582 20.5 54.6915 19.1167 53.9582 18.25C53.2582 17.3833 52.1582 16.95 50.6582 16.95C48.8249 16.95 47.3582 17.5333 46.2582 18.7C45.1915 19.8333 44.6582 21.35 44.6582 23.25V34.2C44.6582 36.3333 43.6082 37.4 41.5082 37.4ZM75.7063 37.5C73.9396 37.5 72.3563 37.1667 70.9563 36.5C69.5896 35.8 68.5063 34.8667 67.7062 33.7C66.9396 32.5333 66.5563 31.2167 66.5563 29.75C66.5563 27.95 67.0229 26.5333 67.9563 25.5C68.8896 24.4333 70.4063 23.6667 72.5063 23.2C74.6063 22.7333 77.4229 22.5 80.9563 22.5H83.4563V26.1H81.0063C78.9396 26.1 77.2896 26.2 76.0563 26.4C74.8229 26.6 73.9396 26.95 73.4063 27.45C72.9063 27.9167 72.6563 28.5833 72.6563 29.45C72.6563 30.55 73.0396 31.45 73.8063 32.15C74.5729 32.85 75.6396 33.2 77.0063 33.2C78.1063 33.2 79.0729 32.95 79.9063 32.45C80.7729 31.9167 81.4563 31.2 81.9563 30.3C82.4563 29.4 82.7063 28.3667 82.7063 27.2V21.45C82.7063 19.7833 82.3396 18.5833 81.6063 17.85C80.8729 17.1167 79.6396 16.75 77.9063 16.75C76.9396 16.75 75.8896 16.8667 74.7563 17.1C73.6563 17.3333 72.4896 17.7333 71.2563 18.3C70.6229 18.6 70.0563 18.6833 69.5563 18.55C69.0896 18.4167 68.7229 18.15 68.4563 17.75C68.1896 17.3167 68.0563 16.85 68.0563 16.35C68.0563 15.85 68.1896 15.3667 68.4563 14.9C68.7229 14.4 69.1729 14.0333 69.8063 13.8C71.3396 13.1667 72.8063 12.7167 74.2063 12.45C75.6396 12.1833 76.9396 12.05 78.1063 12.05C80.5063 12.05 82.4729 12.4167 84.0063 13.15C85.5729 13.8833 86.7396 15 87.5063 16.5C88.2729 17.9667 88.6563 19.8667 88.6563 22.2V34.2C88.6563 35.2333 88.4063 36.0333 87.9063 36.6C87.4063 37.1333 86.6896 37.4 85.7563 37.4C84.8229 37.4 84.0896 37.1333 83.5563 36.6C83.0563 36.0333 82.8063 35.2333 82.8063 34.2V31.8H83.2063C82.9729 32.9667 82.5063 33.9833 81.8063 34.85C81.1396 35.6833 80.2896 36.3333 79.2563 36.8C78.2229 37.2667 77.0396 37.5 75.7063 37.5ZM98 37.25C96.8667 37.25 95.95 36.9 95.25 36.2C94.5833 35.5 94.25 34.6 94.25 33.5C94.25 32.4333 94.5833 31.5667 95.25 30.9C95.95 30.2 96.8667 29.85 98 29.85C99.1667 29.85 100.067 30.2 100.7 30.9C101.367 31.5667 101.7 32.4333 101.7 33.5C101.7 34.6 101.367 35.5 100.7 36.2C100.067 36.9 99.1667 37.25 98 37.25Z" fill="#202020"/>
</svg>
